<?xml version="1.0" encoding="UTF-8"?><svg xmlns="http://www.w3.org/2000/svg" xmlns:xlink="http://www.w3.org/1999/xlink" fill-opacity="1" color-rendering="auto" color-interpolation="auto" text-rendering="auto" stroke="black" stroke-linecap="square" width="404" stroke-miterlimit="10" shape-rendering="auto" stroke-opacity="1" fill="black" stroke-dasharray="none" font-weight="normal" stroke-width="1" height="370" font-family="'Dialog'" font-style="normal" stroke-linejoin="miter" font-size="12px" stroke-dashoffset="0" image-rendering="auto">
  <!--Generated by ySVG 2.5-->
  <defs id="genericDefs"/>
  <g>
    <defs id="defs1">
      <clipPath clipPathUnits="userSpaceOnUse" id="clipPath1">
        <path d="M0 0 L404 0 L404 370 L0 370 L0 0 Z"/>
      </clipPath>
      <clipPath clipPathUnits="userSpaceOnUse" id="clipPath2">
        <path d="M-144 -15 L260 -15 L260 355 L-144 355 L-144 -15 Z"/>
      </clipPath>
    </defs>
    <g fill="white" text-rendering="geometricPrecision" shape-rendering="geometricPrecision" transform="translate(144,15)" stroke="white">
      <rect x="-144" width="404" height="370" y="-15" clip-path="url(#clipPath2)" stroke="none"/>
    </g>
    <g fill="rgb(210,226,240)" text-rendering="geometricPrecision" shape-rendering="geometricPrecision" transform="matrix(1,0,0,1,144,15)" stroke="rgb(210,226,240)">
      <rect x="-37.5" width="250" height="40" y="0" clip-path="url(#clipPath2)" stroke="none"/>
    </g>
    <g text-rendering="geometricPrecision" stroke-miterlimit="1.45" shape-rendering="geometricPrecision" transform="matrix(1,0,0,1,144,15)" stroke-linecap="butt">
      <rect fill="none" x="-37.5" width="250" height="40" y="0" clip-path="url(#clipPath2)"/>
      <text x="70.5693" xml:space="preserve" y="24.5352" clip-path="url(#clipPath2)" font-family="sans-serif" stroke="none">Client</text>
    </g>
    <g fill="rgb(210,226,240)" text-rendering="geometricPrecision" shape-rendering="geometricPrecision" transform="matrix(1,0,0,1,144,15)" stroke="rgb(210,226,240)">
      <rect x="-37.5" width="250" height="40" y="120" clip-path="url(#clipPath2)" stroke="none"/>
    </g>
    <g text-rendering="geometricPrecision" stroke-miterlimit="1.45" shape-rendering="geometricPrecision" transform="matrix(1,0,0,1,144,15)" stroke-linecap="butt">
      <rect fill="none" x="-37.5" width="250" height="40" y="120" clip-path="url(#clipPath2)"/>
      <text x="53.3809" xml:space="preserve" y="144.5352" clip-path="url(#clipPath2)" font-family="sans-serif" stroke="none">Transaction</text>
    </g>
    <g fill="rgb(210,226,240)" text-rendering="geometricPrecision" shape-rendering="geometricPrecision" transform="matrix(1,0,0,1,144,15)" stroke="rgb(210,226,240)">
      <rect x="-37.5" width="250" height="40" y="60" clip-path="url(#clipPath2)" stroke="none"/>
    </g>
    <g text-rendering="geometricPrecision" stroke-miterlimit="1.45" shape-rendering="geometricPrecision" transform="matrix(1,0,0,1,144,15)" stroke-linecap="butt">
      <rect fill="none" x="-37.5" width="250" height="40" y="60" clip-path="url(#clipPath2)"/>
      <text x="54.623" xml:space="preserve" y="84.5352" clip-path="url(#clipPath2)" font-family="sans-serif" stroke="none">grpc Server</text>
    </g>
    <g fill="rgb(210,226,240)" text-rendering="geometricPrecision" shape-rendering="geometricPrecision" transform="matrix(1,0,0,1,144,15)" stroke="rgb(210,226,240)">
      <rect x="-37.5" width="250" height="40" y="180" clip-path="url(#clipPath2)" stroke="none"/>
    </g>
    <g text-rendering="geometricPrecision" stroke-miterlimit="1.45" shape-rendering="geometricPrecision" transform="matrix(1,0,0,1,144,15)" stroke-linecap="butt">
      <rect fill="none" x="-37.5" width="250" height="40" y="180" clip-path="url(#clipPath2)"/>
      <text x="70.1064" xml:space="preserve" y="204.5352" clip-path="url(#clipPath2)" font-family="sans-serif" stroke="none">MVCC</text>
    </g>
    <g fill="rgb(210,226,240)" text-rendering="geometricPrecision" shape-rendering="geometricPrecision" transform="matrix(1,0,0,1,144,15)" stroke="rgb(210,226,240)">
      <rect x="-37.5" width="250" height="40" y="240" clip-path="url(#clipPath2)" stroke="none"/>
    </g>
    <g text-rendering="geometricPrecision" stroke-miterlimit="1.45" shape-rendering="geometricPrecision" transform="matrix(1,0,0,1,144,15)" stroke-linecap="butt">
      <rect fill="none" x="-37.5" width="250" height="40" y="240" clip-path="url(#clipPath2)"/>
      <text x="75.9424" xml:space="preserve" y="264.5352" clip-path="url(#clipPath2)" font-family="sans-serif" stroke="none">Raft</text>
    </g>
    <g fill="rgb(210,226,240)" text-rendering="geometricPrecision" shape-rendering="geometricPrecision" transform="matrix(1,0,0,1,144,15)" stroke="rgb(210,226,240)">
      <rect x="-37.5" width="250" height="40" y="300" clip-path="url(#clipPath2)" stroke="none"/>
    </g>
    <g text-rendering="geometricPrecision" stroke-miterlimit="1.45" shape-rendering="geometricPrecision" transform="matrix(1,0,0,1,144,15)" stroke-linecap="butt">
      <rect fill="none" x="-37.5" width="250" height="40" y="300" clip-path="url(#clipPath2)"/>
      <text x="38.8438" xml:space="preserve" y="324.5352" clip-path="url(#clipPath2)" font-family="sans-serif" stroke="none">Local KV Storage</text>
      <path fill="none" stroke-dasharray="6,2" d="M-128.2885 49.1771 L243.7526 49.1771" clip-path="url(#clipPath2)"/>
      <text x="-123.254" xml:space="preserve" y="23.7123" clip-path="url(#clipPath2)" font-family="sans-serif" stroke="none">TiDB</text>
      <text x="-120.8046" xml:space="preserve" y="84.8417" clip-path="url(#clipPath2)" font-family="sans-serif" stroke="none">TiKV</text>
    </g>
  </g>
</svg>
