<?xml version="1.0" encoding="UTF-8"?><svg xmlns="http://www.w3.org/2000/svg" xmlns:xlink="http://www.w3.org/1999/xlink" fill-opacity="1" color-rendering="auto" color-interpolation="auto" text-rendering="auto" stroke="black" stroke-linecap="square" width="472" stroke-miterlimit="10" shape-rendering="auto" stroke-opacity="1" fill="black" stroke-dasharray="none" font-weight="normal" stroke-width="1" height="569" font-family="'Dialog'" font-style="normal" stroke-linejoin="miter" font-size="12px" stroke-dashoffset="0" image-rendering="auto">
  <!--Generated by ySVG 2.5-->
  <defs id="genericDefs"/>
  <g>
    <defs id="defs1">
      <clipPath clipPathUnits="userSpaceOnUse" id="clipPath1">
        <path d="M0 0 L472 0 L472 569 L0 569 L0 0 Z"/>
      </clipPath>
      <clipPath clipPathUnits="userSpaceOnUse" id="clipPath2">
        <path d="M343 -542 L815 -542 L815 27 L343 27 L343 -542 Z"/>
      </clipPath>
    </defs>
    <g fill="white" text-rendering="geometricPrecision" shape-rendering="geometricPrecision" transform="translate(-343,542)" stroke="white">
      <rect x="343" width="472" height="569" y="-542" clip-path="url(#clipPath2)" stroke="none"/>
    </g>
    <g fill="rgb(153,204,0)" text-rendering="geometricPrecision" shape-rendering="geometricPrecision" transform="matrix(1,0,0,1,-343,542)" stroke="rgb(153,204,0)">
      <ellipse rx="86.0355" ry="25.5" clip-path="url(#clipPath2)" cx="602.5036" cy="-384.3738" stroke="none"/>
    </g>
    <g stroke-linecap="butt" transform="matrix(1,0,0,1,-343,542)" fill="white" text-rendering="geometricPrecision" font-family="sans-serif" shape-rendering="geometricPrecision" stroke="white" stroke-miterlimit="1.45">
      <text x="529.1618" xml:space="preserve" y="-379.8387" clip-path="url(#clipPath2)" stroke="none">PrewriteRequest::execute</text>
    </g>
    <g fill="rgb(255,204,0)" text-rendering="geometricPrecision" shape-rendering="geometricPrecision" transform="matrix(1,0,0,1,-343,542)" stroke="rgb(255,204,0)">
      <circle r="0.5" clip-path="url(#clipPath2)" cx="366.4705" cy="-384.3738" stroke="none"/>
    </g>
    <g text-rendering="geometricPrecision" stroke-miterlimit="1.45" shape-rendering="geometricPrecision" transform="matrix(1,0,0,1,-343,542)" stroke-linecap="butt">
      <circle fill="none" r="0.5" clip-path="url(#clipPath2)" cx="366.4705" cy="-384.3738"/>
    </g>
    <g fill="rgb(0,172,215)" text-rendering="geometricPrecision" shape-rendering="geometricPrecision" transform="matrix(1,0,0,1,-343,542)" stroke="rgb(0,172,215)">
      <ellipse rx="61.7072" ry="25.5" clip-path="url(#clipPath2)" cx="518.1652" cy="-501.2727" stroke="none"/>
    </g>
    <g stroke-linecap="butt" transform="matrix(1,0,0,1,-343,542)" fill="white" text-rendering="geometricPrecision" font-family="sans-serif" shape-rendering="geometricPrecision" stroke="white" stroke-miterlimit="1.45">
      <text x="468.3899" xml:space="preserve" y="-496.7375" clip-path="url(#clipPath2)" stroke="none">Server.GetRegion</text>
    </g>
    <g fill="rgb(0,172,215)" text-rendering="geometricPrecision" shape-rendering="geometricPrecision" transform="matrix(1,0,0,1,-343,542)" stroke="rgb(0,172,215)">
      <ellipse rx="61.7072" ry="25.5" clip-path="url(#clipPath2)" cx="705.3741" cy="-501.2727" stroke="none"/>
    </g>
    <g stroke-linecap="butt" transform="matrix(1,0,0,1,-343,542)" fill="white" text-rendering="geometricPrecision" font-family="sans-serif" shape-rendering="geometricPrecision" stroke="white" stroke-miterlimit="1.45">
      <text x="660.6612" xml:space="preserve" y="-496.7375" clip-path="url(#clipPath2)" stroke="none">Server.GetStore</text>
    </g>
    <g fill="rgb(240,188,47)" text-rendering="geometricPrecision" shape-rendering="geometricPrecision" transform="matrix(1,0,0,1,-343,542)" stroke="rgb(240,188,47)">
      <rect x="563.6735" width="97.342" height="58.7156" y="-300.314" clip-path="url(#clipPath2)" stroke="none"/>
    </g>
    <g stroke-linecap="butt" transform="matrix(1,0,0,1,-343,542)" fill="white" text-rendering="geometricPrecision" font-family="sans-serif" shape-rendering="geometricPrecision" stroke="white" stroke-miterlimit="1.45">
      <text x="582.491" xml:space="preserve" y="-287.6203" clip-path="url(#clipPath2)" stroke="none">Command</text>
      <text x="583.9412" xml:space="preserve" y="-273.4875" clip-path="url(#clipPath2)" stroke="none">Scheduler</text>
      <text x="590.3895" xml:space="preserve" y="-259.3546" clip-path="url(#clipPath2)" stroke="none">Latches</text>
      <text x="601.7859" xml:space="preserve" y="-245.2218" clip-path="url(#clipPath2)" stroke="none">etc.</text>
    </g>
    <g fill="rgb(240,188,47)" text-rendering="geometricPrecision" shape-rendering="geometricPrecision" transform="matrix(1,0,0,1,-343,542)" stroke="rgb(240,188,47)">
      <ellipse rx="61.7072" ry="21.0911" clip-path="url(#clipPath2)" cx="611.7934" cy="-171.7693" stroke="none"/>
    </g>
    <g stroke-linecap="butt" transform="matrix(1,0,0,1,-343,542)" fill="white" text-rendering="geometricPrecision" font-family="sans-serif" shape-rendering="geometricPrecision" stroke="white" stroke-miterlimit="1.45">
      <text x="556.0971" xml:space="preserve" y="-167.2342" clip-path="url(#clipPath2)" stroke="none">process_write_impl</text>
    </g>
    <g fill="rgb(240,188,47)" text-rendering="geometricPrecision" shape-rendering="geometricPrecision" transform="matrix(1,0,0,1,-343,542)" stroke="rgb(240,188,47)">
      <ellipse rx="61.7072" ry="21.0911" clip-path="url(#clipPath2)" cx="611.7934" cy="-99.5872" stroke="none"/>
    </g>
    <g stroke-linecap="butt" transform="matrix(1,0,0,1,-343,542)" fill="white" text-rendering="geometricPrecision" font-family="sans-serif" shape-rendering="geometricPrecision" stroke="white" stroke-miterlimit="1.45">
      <text x="558.4057" xml:space="preserve" y="-95.052" clip-path="url(#clipPath2)" stroke="none">MvccTxn::prewrite</text>
    </g>
    <g fill="rgb(240,188,47)" text-rendering="geometricPrecision" shape-rendering="geometricPrecision" transform="matrix(1,0,0,1,-343,542)" stroke="rgb(240,188,47)">
      <ellipse rx="95.3253" ry="25.5" clip-path="url(#clipPath2)" cx="611.7934" cy="-14.1783" stroke="none"/>
    </g>
    <g stroke-linecap="butt" transform="matrix(1,0,0,1,-343,542)" fill="white" text-rendering="geometricPrecision" font-family="sans-serif" shape-rendering="geometricPrecision" stroke="white" stroke-miterlimit="1.45">
      <text x="527.2016" xml:space="preserve" y="-9.6431" clip-path="url(#clipPath2)" stroke="none">MvccTxn::prewrite_key_value</text>
    </g>
    <g fill="rgb(255,204,0)" text-rendering="geometricPrecision" shape-rendering="geometricPrecision" transform="matrix(1,0,0,1,-343,542)" stroke="rgb(255,204,0)">
      <circle r="0.5" clip-path="url(#clipPath2)" cx="797.6199" cy="-383.4425" stroke="none"/>
    </g>
    <g text-rendering="geometricPrecision" stroke-miterlimit="1.45" shape-rendering="geometricPrecision" transform="matrix(1,0,0,1,-343,542)" stroke-linecap="butt">
      <circle fill="none" r="0.5" clip-path="url(#clipPath2)" cx="797.6199" cy="-383.4425"/>
      <path fill="none" d="M366.9705 -384.3738 L508.468 -384.3738" clip-path="url(#clipPath2)"/>
      <path d="M516.468 -384.3738 L504.468 -389.3738 L507.468 -384.3738 L504.468 -379.3738 Z" clip-path="url(#clipPath2)" stroke="none"/>
      <rect x="392.2256" y="-393.4402" clip-path="url(#clipPath2)" fill="white" width="62.6582" height="18.1328" stroke="none"/>
      <text x="394.2256" xml:space="preserve" y="-379.8387" clip-path="url(#clipPath2)" font-family="sans-serif" stroke="none">mutations</text>
      <path fill="none" d="M568.042 -407.7229 L556.9848 -418.1884 L545.5164 -432.1325 L535.9002 -447.4131 L528.1363 -464.0299 L526.7242 -468.3182" clip-path="url(#clipPath2)"/>
      <path d="M524.2221 -475.9169 L523.2261 -462.9551 L527.037 -467.3684 L532.7244 -466.0827 Z" clip-path="url(#clipPath2)" stroke="none"/>
      <text x="497.9393" xml:space="preserve" y="-440.3997" clip-path="url(#clipPath2)" font-family="sans-serif" stroke="none">grpc</text>
      <text x="481.0409" xml:space="preserve" y="-426.2668" clip-path="url(#clipPath2)" font-family="sans-serif" stroke="none">GetRegion</text>
      <path fill="none" d="M540.1713 -477.4428 L542.7928 -474.6041 L565.0583 -446.2314 L584.7133 -416.5304 L584.7617 -416.4428" clip-path="url(#clipPath2)"/>
      <path d="M588.6595 -409.4567 L587.1791 -422.3721 L584.2744 -417.3161 L578.4464 -417.4998 Z" clip-path="url(#clipPath2)" stroke="none"/>
      <rect x="543.0369" y="-455.2978" clip-path="url(#clipPath2)" fill="white" width="44.043" height="18.1328" stroke="none"/>
      <text x="545.0369" xml:space="preserve" y="-441.6963" clip-path="url(#clipPath2)" font-family="sans-serif" stroke="none">Region</text>
      <path fill="none" d="M638.8606 -407.5079 L641.8746 -422.9573 L646.4073 -437.364 L652.453 -450.6977 L660.0115 -462.9586 L668.6696 -473.6368 L668.7419 -473.7059" clip-path="url(#clipPath2)"/>
      <path d="M674.4672 -479.2935 L662.387 -474.4904 L668.0262 -473.0075 L669.3715 -467.3338 Z" clip-path="url(#clipPath2)" stroke="none"/>
      <rect x="596.9683" y="-468.46" clip-path="url(#clipPath2)" fill="white" width="53.7637" height="32.2656" stroke="none"/>
      <text x="610.8042" xml:space="preserve" y="-454.8585" clip-path="url(#clipPath2)" font-family="sans-serif" stroke="none">grpc</text>
      <text x="598.9683" xml:space="preserve" y="-440.7256" clip-path="url(#clipPath2)" font-family="sans-serif" stroke="none">GetStore</text>
      <path fill="none" d="M704.3557 -475.785 L700.0853 -454.0706 L696.6352 -444.1428 L692.3337 -434.9639 L687.1812 -426.5342 L681.1774 -418.8535 L674.3224 -411.9218 L668.5713 -407.3078 L668.4869 -407.2542" clip-path="url(#clipPath2)"/>
      <path d="M661.8873 -402.7325 L674.6127 -405.3903 L669.3118 -407.8194 L668.9606 -413.6398 Z" clip-path="url(#clipPath2)" stroke="none"/>
      <rect x="670.5088" y="-449.3463" clip-path="url(#clipPath2)" fill="white" width="33.918" height="18.1328" stroke="none"/>
      <text x="672.5088" xml:space="preserve" y="-435.7447" clip-path="url(#clipPath2)" font-family="sans-serif" stroke="none">Store</text>
      <path fill="none" d="M581.213 -359.6778 L577.0483 -353.5973 L573.5924 -346.1554 L571.2996 -338.8145 L570.1699 -331.5746 L570.2034 -324.4355 L571.4001 -317.3973 L573.7598 -310.4601 L575.4454 -307.1893 L575.5025 -307.1072" clip-path="url(#clipPath2)"/>
      <path d="M579.6223 -300.2495 L577.7287 -313.1109 L574.9875 -307.9644 L569.1566 -307.9612 Z" clip-path="url(#clipPath2)" stroke="none"/>
      <rect x="474.2622" y="-332.514" clip-path="url(#clipPath2)" fill="white" width="97.5918" height="18.1328" stroke="none"/>
      <text x="476.2622" xml:space="preserve" y="-318.9124" clip-path="url(#clipPath2)" font-family="sans-serif" stroke="none">PrewriteRequest</text>
      <path fill="none" d="M628.3627 -300.3281 L628.6326 -300.9373 L632.0896 -315.5212 L632.4218 -329.834 L629.6293 -343.8756 L625.967 -352.3987 L625.9113 -352.4818" clip-path="url(#clipPath2)"/>
      <path d="M622.3792 -359.6598 L623.1911 -346.6852 L626.3528 -351.5845 L632.1636 -351.1003 Z" clip-path="url(#clipPath2)" stroke="none"/>
      <rect x="589.0107" y="-338.9004" clip-path="url(#clipPath2)" fill="white" width="86.8223" height="18.1328" stroke="none"/>
      <text x="591.0107" xml:space="preserve" y="-325.2988" clip-path="url(#clipPath2)" font-family="sans-serif" stroke="none">PrewriteResult</text>
      <path fill="none" d="M595.0446 -241.5811 L592.5623 -233.8699 L591.1884 -221.4788 L592.4246 -209.0732 L595.328 -199.6975 L595.3741 -199.6087" clip-path="url(#clipPath2)"/>
      <path d="M598.5422 -192.2628 L598.3812 -205.2618 L594.9781 -200.527 L589.1988 -201.3017 Z" clip-path="url(#clipPath2)" stroke="none"/>
      <text x="539.9612" xml:space="preserve" y="-205.4562" clip-path="url(#clipPath2)" font-family="sans-serif" stroke="none">Prewrite</text>
      <path fill="none" d="M619.4683 -192.6738 L620.6131 -196.5178 L622.8525 -208.9041 L623.6448 -221.2984 L622.9902 -233.7008 L622.9878 -233.7151" clip-path="url(#clipPath2)"/>
      <path d="M621.6521 -241.6028 L618.7258 -228.9364 L623.1548 -232.7291 L628.5854 -230.606 Z" clip-path="url(#clipPath2)" stroke="none"/>
      <rect x="618.0146" y="-223.3835" clip-path="url(#clipPath2)" fill="white" width="69.6133" height="18.1328" stroke="none"/>
      <text x="620.0146" xml:space="preserve" y="-209.7819" clip-path="url(#clipPath2)" font-family="sans-serif" stroke="none">WriteResult</text>
      <path fill="none" d="M599.7021 -151.0804 L597.7107 -144.701 L596.7719 -135.6783 L597.5721 -127.9874 L597.6019 -127.8919" clip-path="url(#clipPath2)"/>
      <path d="M599.7286 -120.1798 L601.3585 -133.0772 L597.336 -128.8559 L591.7184 -130.4187 Z" clip-path="url(#clipPath2)" stroke="none"/>
      <text x="542.8046" xml:space="preserve" y="-142.6708" clip-path="url(#clipPath2)" font-family="sans-serif" stroke="none">mutation</text>
      <path fill="none" d="M620.1536 -120.4876 L621.4776 -126.6555 L622.1232 -135.6783 L621.5992 -143.0006 L621.5782 -143.0984" clip-path="url(#clipPath2)"/>
      <path d="M620.1356 -150.9673 L617.3816 -138.2623 L621.7586 -142.1148 L627.2177 -140.0656 Z" clip-path="url(#clipPath2)" stroke="none"/>
      <text x="634.4066" xml:space="preserve" y="-122.8881" clip-path="url(#clipPath2)" font-family="sans-serif" stroke="none">result</text>
      <path fill="none" d="M599.5778 -78.9439 L599.2302 -78.235 L596.0894 -67.5589 L595.0425 -56.8827 L595.9988 -47.131 L596.027 -47.035" clip-path="url(#clipPath2)"/>
      <path d="M598.1154 -39.3124 L599.8094 -52.2016 L595.7659 -48.0004 L590.1562 -49.5911 Z" clip-path="url(#clipPath2)" stroke="none"/>
      <text x="538.1132" xml:space="preserve" y="-63.3025" clip-path="url(#clipPath2)" font-family="sans-serif" stroke="none">key, value</text>
      <path fill="none" d="M619.6018 -39.5757 L620.7094 -46.2066 L621.3037 -56.8827 L620.7094 -67.5589 L620.1802 -70.7265 L620.1534 -70.8229" clip-path="url(#clipPath2)"/>
      <path d="M618.8049 -78.7084 L615.8992 -66.0372 L620.322 -69.8372 L625.7562 -67.7229 Z" clip-path="url(#clipPath2)" stroke="none"/>
      <text x="634.0278" xml:space="preserve" y="-45.8263" clip-path="url(#clipPath2)" font-family="sans-serif" stroke="none">result</text>
      <path fill="none" d="M688.528 -383.9632 L789.12 -383.4831" clip-path="url(#clipPath2)"/>
      <path d="M797.1199 -383.4449 L785.1439 -388.5021 L788.1201 -383.4879 L785.0962 -378.5023 Z" clip-path="url(#clipPath2)" stroke="none"/>
    </g>
  </g>
</svg>
