<?xml version="1.0" encoding="UTF-8"?><svg xmlns="http://www.w3.org/2000/svg" xmlns:xlink="http://www.w3.org/1999/xlink" fill-opacity="1" color-rendering="auto" color-interpolation="auto" text-rendering="auto" stroke="black" stroke-linecap="square" width="665" stroke-miterlimit="10" shape-rendering="auto" stroke-opacity="1" fill="black" stroke-dasharray="none" font-weight="normal" stroke-width="1" height="598" font-family="'Dialog'" font-style="normal" stroke-linejoin="miter" font-size="12px" stroke-dashoffset="0" image-rendering="auto">
  <!--Generated by ySVG 2.5-->
  <defs id="genericDefs"/>
  <g>
    <defs id="defs1">
      <clipPath clipPathUnits="userSpaceOnUse" id="clipPath1">
        <path d="M0 0 L665 0 L665 598 L0 598 L0 0 Z"/>
      </clipPath>
      <clipPath clipPathUnits="userSpaceOnUse" id="clipPath2">
        <path d="M596 871 L1261 871 L1261 1469 L596 1469 L596 871 Z"/>
      </clipPath>
    </defs>
    <g fill="white" text-rendering="geometricPrecision" shape-rendering="geometricPrecision" transform="translate(-596,-871)" stroke="white">
      <rect x="596" width="665" height="598" y="871" clip-path="url(#clipPath2)" stroke="none"/>
    </g>
    <g fill="rgb(153,204,0)" text-rendering="geometricPrecision" shape-rendering="geometricPrecision" transform="matrix(1,0,0,1,-596,-871)" stroke="rgb(153,204,0)">
      <ellipse rx="72.5196" ry="21" clip-path="url(#clipPath2)" cx="936.8539" cy="1077.6816" stroke="none"/>
    </g>
    <g stroke-linecap="butt" transform="matrix(1,0,0,1,-596,-871)" fill="white" text-rendering="geometricPrecision" font-family="sans-serif" shape-rendering="geometricPrecision" stroke="white" stroke-miterlimit="1.45">
      <text x="877.1029" xml:space="preserve" y="1082.2168" clip-path="url(#clipPath2)" stroke="none">GetRequest::execute</text>
    </g>
    <g fill="rgb(0,172,215)" text-rendering="geometricPrecision" shape-rendering="geometricPrecision" transform="matrix(1,0,0,1,-596,-871)" stroke="rgb(0,172,215)">
      <ellipse rx="58" ry="21" clip-path="url(#clipPath2)" cx="802.4286" cy="907.0665" stroke="none"/>
    </g>
    <g stroke-linecap="butt" transform="matrix(1,0,0,1,-596,-871)" fill="white" text-rendering="geometricPrecision" font-family="sans-serif" shape-rendering="geometricPrecision" stroke="white" stroke-miterlimit="1.45">
      <text x="752.6532" xml:space="preserve" y="911.6017" clip-path="url(#clipPath2)" stroke="none">Server.GetRegion</text>
    </g>
    <g fill="rgb(255,204,0)" text-rendering="geometricPrecision" shape-rendering="geometricPrecision" transform="matrix(1,0,0,1,-596,-871)" stroke="rgb(255,204,0)">
      <rect x="691.1113" width="80" height="24" y="1112.6701" clip-path="url(#clipPath2)" stroke="none"/>
    </g>
    <g text-rendering="geometricPrecision" stroke-miterlimit="1.45" shape-rendering="geometricPrecision" transform="matrix(1,0,0,1,-596,-871)" stroke-linecap="butt">
      <rect fill="none" x="691.1113" width="80" height="24" y="1112.6701" clip-path="url(#clipPath2)"/>
      <text x="713.4013" xml:space="preserve" y="1129.2052" clip-path="url(#clipPath2)" font-family="sans-serif" stroke="none">buffer</text>
    </g>
    <g fill="rgb(0,172,215)" text-rendering="geometricPrecision" shape-rendering="geometricPrecision" transform="matrix(1,0,0,1,-596,-871)" stroke="rgb(0,172,215)">
      <ellipse rx="58" ry="21" clip-path="url(#clipPath2)" cx="1085.3521" cy="914.6816" stroke="none"/>
    </g>
    <g stroke-linecap="butt" transform="matrix(1,0,0,1,-596,-871)" fill="white" text-rendering="geometricPrecision" font-family="sans-serif" shape-rendering="geometricPrecision" stroke="white" stroke-miterlimit="1.45">
      <text x="1040.6392" xml:space="preserve" y="919.2167" clip-path="url(#clipPath2)" stroke="none">Server.GetStore</text>
    </g>
    <g fill="rgb(255,200,50)" text-rendering="geometricPrecision" shape-rendering="geometricPrecision" transform="matrix(1,0,0,1,-596,-871)" stroke="rgb(255,200,50)">
      <ellipse rx="54.0624" ry="17.3086" clip-path="url(#clipPath2)" cx="850.9023" cy="1216.5455" stroke="none"/>
    </g>
    <g stroke-linecap="butt" transform="matrix(1,0,0,1,-596,-871)" fill="white" text-rendering="geometricPrecision" font-family="sans-serif" shape-rendering="geometricPrecision" stroke="white" stroke-miterlimit="1.45">
      <text x="820.8788" xml:space="preserve" y="1221.0806" clip-path="url(#clipPath2)" stroke="none">future_get</text>
    </g>
    <g fill="rgb(255,204,0)" text-rendering="geometricPrecision" shape-rendering="geometricPrecision" transform="matrix(1,0,0,1,-596,-871)" stroke="rgb(255,204,0)">
      <rect x="1070.9936" width="1" height="1" y="1160.8332" clip-path="url(#clipPath2)" stroke="none"/>
    </g>
    <g text-rendering="geometricPrecision" stroke-miterlimit="1.45" shape-rendering="geometricPrecision" transform="matrix(1,0,0,1,-596,-871)" stroke-linecap="butt">
      <rect fill="none" x="1070.9936" width="1" height="1" y="1160.8332" clip-path="url(#clipPath2)"/>
    </g>
    <g fill="rgb(255,200,50)" text-rendering="geometricPrecision" shape-rendering="geometricPrecision" transform="matrix(1,0,0,1,-596,-871)" stroke="rgb(255,200,50)">
      <ellipse rx="67.2809" ry="17.3086" clip-path="url(#clipPath2)" cx="850.9023" cy="1289.7219" stroke="none"/>
    </g>
    <g stroke-linecap="butt" transform="matrix(1,0,0,1,-596,-871)" fill="white" text-rendering="geometricPrecision" font-family="sans-serif" shape-rendering="geometricPrecision" stroke="white" stroke-miterlimit="1.45">
      <text x="796.0615" xml:space="preserve" y="1294.2571" clip-path="url(#clipPath2)" stroke="none">SnapshotStore::get</text>
    </g>
    <g fill="rgb(255,200,50)" text-rendering="geometricPrecision" shape-rendering="geometricPrecision" transform="matrix(1,0,0,1,-596,-871)" stroke="rgb(255,200,50)">
      <ellipse rx="67.2809" ry="17.3086" clip-path="url(#clipPath2)" cx="850.9023" cy="1362.8983" stroke="none"/>
    </g>
    <g stroke-linecap="butt" transform="matrix(1,0,0,1,-596,-871)" fill="white" text-rendering="geometricPrecision" font-family="sans-serif" shape-rendering="geometricPrecision" stroke="white" stroke-miterlimit="1.45">
      <text x="805.1083" xml:space="preserve" y="1367.4335" clip-path="url(#clipPath2)" stroke="none">PointGetter::get</text>
    </g>
    <g fill="rgb(255,200,50)" text-rendering="geometricPrecision" shape-rendering="geometricPrecision" transform="matrix(1,0,0,1,-596,-871)" stroke="rgb(255,200,50)">
      <ellipse rx="67.2809" ry="17.3086" clip-path="url(#clipPath2)" cx="850.9023" cy="1436.0747" stroke="none"/>
    </g>
    <g stroke-linecap="butt" transform="matrix(1,0,0,1,-596,-871)" fill="white" text-rendering="geometricPrecision" font-family="sans-serif" shape-rendering="geometricPrecision" stroke="white" stroke-miterlimit="1.45">
      <text x="789.8593" xml:space="preserve" y="1440.6099" clip-path="url(#clipPath2)" stroke="none">load_and_check_lock</text>
    </g>
    <g fill="rgb(153,204,0)" text-rendering="geometricPrecision" shape-rendering="geometricPrecision" transform="matrix(1,0,0,1,-596,-871)" stroke="rgb(153,204,0)">
      <ellipse rx="58" ry="17.3086" clip-path="url(#clipPath2)" cx="1089.2896" cy="1176.5494" stroke="none"/>
    </g>
    <g stroke-linecap="butt" transform="matrix(1,0,0,1,-596,-871)" fill="white" text-rendering="geometricPrecision" font-family="sans-serif" shape-rendering="geometricPrecision" stroke="white" stroke-miterlimit="1.45">
      <text x="1050.5065" xml:space="preserve" y="1181.0846" clip-path="url(#clipPath2)" stroke="none">resolve_locks</text>
    </g>
    <g fill="rgb(255,200,50)" text-rendering="geometricPrecision" shape-rendering="geometricPrecision" transform="matrix(1,0,0,1,-596,-871)" stroke="rgb(255,200,50)">
      <ellipse rx="54.0624" ry="17.3086" clip-path="url(#clipPath2)" cx="1089.2896" cy="1289.7219" stroke="none"/>
    </g>
    <g stroke-linecap="butt" transform="matrix(1,0,0,1,-596,-871)" fill="white" text-rendering="geometricPrecision" font-family="sans-serif" shape-rendering="geometricPrecision" stroke="white" stroke-miterlimit="1.45">
      <text x="1053.7614" xml:space="preserve" y="1294.2571" clip-path="url(#clipPath2)" stroke="none">ResolveLock</text>
    </g>
    <g fill="rgb(255,204,0)" text-rendering="geometricPrecision" shape-rendering="geometricPrecision" transform="matrix(1,0,0,1,-596,-871)" stroke="rgb(255,204,0)">
      <rect x="1243.2285" width="1" height="1" y="1072.2728" clip-path="url(#clipPath2)" stroke="none"/>
    </g>
    <g text-rendering="geometricPrecision" stroke-miterlimit="1.45" shape-rendering="geometricPrecision" transform="matrix(1,0,0,1,-596,-871)" stroke-linecap="butt">
      <rect fill="none" x="1243.2285" width="1" height="1" y="1072.2728" clip-path="url(#clipPath2)"/>
    </g>
    <g fill="rgb(255,204,0)" text-rendering="geometricPrecision" shape-rendering="geometricPrecision" transform="matrix(1,0,0,1,-596,-871)" stroke="rgb(255,204,0)">
      <rect x="613.489" width="1" height="2.0384" y="1056.6816" clip-path="url(#clipPath2)" stroke="none"/>
    </g>
    <g text-rendering="geometricPrecision" stroke-miterlimit="1.45" shape-rendering="geometricPrecision" transform="matrix(1,0,0,1,-596,-871)" stroke-linecap="butt">
      <rect fill="none" x="613.489" width="1" height="2.0384" y="1056.6816" clip-path="url(#clipPath2)"/>
    </g>
    <g fill="rgb(255,200,50)" text-rendering="geometricPrecision" shape-rendering="geometricPrecision" transform="matrix(1,0,0,1,-596,-871)" stroke="rgb(255,200,50)">
      <rect x="1027.578" width="123.4233" height="52.3184" y="1337.0304" clip-path="url(#clipPath2)" stroke="none"/>
      <rect x="1027.578" y="1337.0304" clip-path="url(#clipPath2)" fill="rgb(255,255,71)" width="1" height="52.3184" stroke="none"/>
      <rect x="1028.578" y="1337.0304" clip-path="url(#clipPath2)" fill="rgb(255,255,71)" width="121.4233" height="1" stroke="none"/>
      <rect x="1028.578" y="1388.3488" clip-path="url(#clipPath2)" fill="rgb(178,140,35)" width="122.4233" height="1" stroke="none"/>
      <rect x="1150.0013" y="1337.0304" clip-path="url(#clipPath2)" fill="rgb(178,140,35)" width="1" height="51.3184" stroke="none"/>
    </g>
    <g stroke-linecap="butt" transform="matrix(1,0,0,1,-596,-871)" fill="white" text-rendering="geometricPrecision" font-family="sans-serif" shape-rendering="geometricPrecision" stroke="white" stroke-miterlimit="1.45">
      <text x="1071.0641" xml:space="preserve" y="1353.5919" clip-path="url(#clipPath2)" stroke="none">things</text>
      <text x="1072.5465" xml:space="preserve" y="1367.7247" clip-path="url(#clipPath2)" stroke="none">about</text>
      <text x="1074.4362" xml:space="preserve" y="1381.8575" clip-path="url(#clipPath2)" stroke="none">mvcc</text>
      <path fill="none" d="M909.6492 1058.2152 L847.7463 1013.9207 L840.7835 1007.2101 L836.16 998.7169 L812.853 935.3901" clip-path="url(#clipPath2)" stroke="black"/>
      <path fill="black" d="M810.0898 927.8825 L809.5423 940.871 L813.1984 936.3286 L818.9268 937.417 Z" clip-path="url(#clipPath2)" stroke="none"/>
      <text fill="black" x="796.5159" xml:space="preserve" y="1015.932" clip-path="url(#clipPath2)" stroke="none">grpc </text>
      <text fill="black" x="781.5159" xml:space="preserve" y="1030.0648" clip-path="url(#clipPath2)" stroke="none">GetRegion</text>
      <path fill="none" d="M824.3748 926.5051 L870.0662 966.9757 L876.9182 974.1207 L882.5026 982.2947 L921.0872 1050.0109" clip-path="url(#clipPath2)" stroke="black"/>
      <path fill="black" d="M925.0477 1056.9617 L923.4512 1044.0601 L920.5922 1049.142 L914.7627 1049.0107 Z" clip-path="url(#clipPath2)" stroke="none"/>
      <rect x="865.5867" width="44.043" height="18.1328" y="982.1885" clip-path="url(#clipPath2)" stroke="none"/>
      <text fill="black" x="867.5867" xml:space="preserve" y="995.79" clip-path="url(#clipPath2)" stroke="none">Region</text>
      <path fill="none" d="M771.1113 1115.5347 L872.1135 1092.4673" clip-path="url(#clipPath2)" stroke="black"/>
      <path fill="black" d="M879.9127 1090.6862 L867.1006 1088.4834 L871.1385 1092.6899 L869.3271 1098.2323 Z" clip-path="url(#clipPath2)" stroke="none"/>
      <rect x="781.1524" width="73.1406" height="32.2656" y="1088.7565" clip-path="url(#clipPath2)" stroke="none"/>
      <text fill="black" x="802.5031" xml:space="preserve" y="1102.358" clip-path="url(#clipPath2)" stroke="none">value</text>
      <text fill="black" x="783.1525" xml:space="preserve" y="1116.4908" clip-path="url(#clipPath2)" stroke="none">(if buffered)</text>
      <path fill="none" d="M1058.4928 933.2941 L1001.4364 972.8323 L994.0364 979.2775 L988.2752 987.2216 L952.5861 1050.0056" clip-path="url(#clipPath2)" stroke="black"/>
      <path fill="black" d="M948.6327 1056.9604 L958.9097 1048.999 L953.0803 1049.1362 L950.2161 1044.0573 Z" clip-path="url(#clipPath2)" stroke="none"/>
      <rect x="976.2581" width="33.918" height="18.1328" y="969.4616" clip-path="url(#clipPath2)" stroke="none"/>
      <text fill="black" x="978.2581" xml:space="preserve" y="983.0632" clip-path="url(#clipPath2)" stroke="none">Store</text>
      <path fill="none" d="M1072.9443 935.1954 L1037.7811 993.331 L1031.9393 1001.3 L1024.7649 1008.0941 L968.0414 1052.9946" clip-path="url(#clipPath2)" stroke="black"/>
      <path fill="black" d="M961.7687 1057.9598 L974.281 1054.4325 L968.8254 1052.374 L968.0745 1046.5916 Z" clip-path="url(#clipPath2)" stroke="none"/>
      <rect x="1005.7239" width="53.7637" height="32.2656" y="985.7547" clip-path="url(#clipPath2)" stroke="none"/>
      <text fill="black" x="1017.6614" xml:space="preserve" y="999.3563" clip-path="url(#clipPath2)" stroke="none">grpc </text>
      <text fill="black" x="1007.7239" xml:space="preserve" y="1013.4891" clip-path="url(#clipPath2)" stroke="none">GetStore</text>
      <path fill="none" d="M904.8408 1096.5516 L897.8241 1101.5398 L882.6947 1116.1833 L870.4889 1132.6365 L861.2068 1150.8993 L854.8483 1170.9717 L851.6726 1191.2029 L851.6705 1191.3029" clip-path="url(#clipPath2)" stroke="black"/>
      <path fill="black" d="M851.2717 1199.293 L856.8636 1187.5571 L851.7203 1190.3042 L846.876 1187.0586 Z" clip-path="url(#clipPath2)" stroke="none"/>
      <rect x="851.5436" width="37.8906" height="32.2656" y="1116.5037" clip-path="url(#clipPath2)" stroke="none"/>
      <text fill="black" x="857.443" xml:space="preserve" y="1130.1052" clip-path="url(#clipPath2)" stroke="none">grpc</text>
      <text fill="black" x="853.5436" xml:space="preserve" y="1144.238" clip-path="url(#clipPath2)" stroke="none">KvGet</text>
      <path fill="none" d="M876.9011 1201.3616 L889.3074 1192.3007 L904.2807 1177.5604 L916.4344 1161.0751 L925.7686 1142.8445 L932.2832 1122.8688 L935.0419 1106.6526 L935.0456 1106.5526" clip-path="url(#clipPath2)" stroke="black"/>
      <path fill="black" d="M936.0818 1098.62 L929.5696 1109.8712 L934.916 1107.5442 L939.4853 1111.1666 Z" clip-path="url(#clipPath2)" stroke="none"/>
      <rect x="899.2147" width="34.4395" height="18.1328" y="1152.0087" clip-path="url(#clipPath2)" stroke="none"/>
      <text fill="black" x="901.2147" xml:space="preserve" y="1165.6102" clip-path="url(#clipPath2)" stroke="none">value</text>
      <path fill="none" d="M838.0198 1233.3746 L837.0986 1234.8396 L833.6478 1243.9866 L832.4974 1253.1337 L833.6478 1262.2808 L834.8171 1265.3802 L834.8703 1265.4648" clip-path="url(#clipPath2)" stroke="black"/>
      <path fill="black" d="M837.9681 1272.8407 L837.9313 1259.8407 L834.4831 1264.5428 L828.7115 1263.713 Z" clip-path="url(#clipPath2)" stroke="none"/>
      <rect x="822.9376" width="23.9688" height="18.1328" y="1239.2473" clip-path="url(#clipPath2)" stroke="none"/>
      <text fill="black" x="824.9376" xml:space="preserve" y="1252.8489" clip-path="url(#clipPath2)" stroke="none">key</text>
      <path fill="none" d="M868.4784 1273.0356 L869.8674 1271.4277 L874.6087 1262.2808 L876.1891 1253.1337 L874.6087 1243.9866 L872.4191 1239.7623 L872.3538 1239.6866" clip-path="url(#clipPath2)" stroke="black"/>
      <path fill="black" d="M868.1799 1232.8617 L870.175 1245.7076 L872.8754 1240.5397 L878.7062 1240.4905 Z" clip-path="url(#clipPath2)" stroke="none"/>
      <text fill="black" x="894.515" xml:space="preserve" y="1257.6688" clip-path="url(#clipPath2)" stroke="none">value/KeyIsLocked</text>
      <path fill="none" d="M841.4326 1306.8369 L840.8951 1308.016 L838.3932 1317.1631 L837.5593 1326.3101 L838.3932 1335.4572 L839.1227 1338.124 L839.1642 1338.215" clip-path="url(#clipPath2)" stroke="black"/>
      <path fill="black" d="M841.461 1345.8782 L842.8053 1332.9479 L838.8771 1337.2571 L833.2263 1335.8188 Z" clip-path="url(#clipPath2)" stroke="none"/>
      <rect x="827.3327" width="23.9688" height="18.1328" y="1312.4237" clip-path="url(#clipPath2)" stroke="none"/>
      <text fill="black" x="829.3326" xml:space="preserve" y="1326.0253" clip-path="url(#clipPath2)" stroke="none">key</text>
      <path fill="none" d="M864.7871 1345.9263 L865.6769 1344.6042 L869.3705 1335.4572 L870.6017 1326.3101 L869.3705 1317.1631 L868.0861 1313.9821 L868.0302 1313.899" clip-path="url(#clipPath2)" stroke="black"/>
      <path fill="black" d="M864.7466 1306.604 L865.1125 1319.5989 L868.4406 1314.8109 L874.2314 1315.4944 Z" clip-path="url(#clipPath2)" stroke="none"/>
      <text fill="black" x="883.2072" xml:space="preserve" y="1330.8452" clip-path="url(#clipPath2)" stroke="none">value/KeyIsLocked</text>
      <path fill="none" d="M840.5344 1380.0133 L839.9459 1381.1924 L837.2068 1390.3395 L836.2938 1399.4866 L837.2068 1408.6335 L838.0244 1411.3636 L838.069 1411.4531" clip-path="url(#clipPath2)" stroke="black"/>
      <path fill="black" d="M840.5653 1419.0537 L841.5713 1406.0927 L837.757 1410.5031 L832.0706 1409.213 Z" clip-path="url(#clipPath2)" stroke="none"/>
      <rect x="828.1583" width="23.9688" height="18.1328" y="1380.7803" clip-path="url(#clipPath2)" stroke="none"/>
      <text fill="black" x="830.1583" xml:space="preserve" y="1394.3818" clip-path="url(#clipPath2)" stroke="none">key</text>
      <path fill="none" d="M866.2554 1419.2456 L867.3531 1417.7806 L871.4658 1408.6335 L872.8367 1399.4866 L871.4658 1390.3395 L869.8971 1386.8505 L869.8372 1386.7704" clip-path="url(#clipPath2)" stroke="black"/>
      <path fill="black" d="M866.2107 1379.6395 L867.1936 1392.6023 L870.2905 1387.6617 L876.1072 1388.0692 Z" clip-path="url(#clipPath2)" stroke="none"/>
      <rect x="862.4894" width="89.6289" height="18.1328" y="1391.2722" clip-path="url(#clipPath2)" stroke="none"/>
      <text fill="black" x="864.4894" xml:space="preserve" y="1404.8738" clip-path="url(#clipPath2)" stroke="none">KeyIsLocked/()</text>
      <path fill="none" d="M943.7842 1098.5844 L946.2329 1104.9579 L951.9591 1116.9976 L958.3763 1127.9718 L965.4847 1137.8805 L973.2842 1146.7236 L981.7748 1154.5011 L990.9565 1161.2131 L1000.8293 1166.8596 L1011.3932 1171.4406 L1022.6481 1174.9559 L1023.4441 1175.1191" clip-path="url(#clipPath2)" stroke="black"/>
      <path fill="black" d="M1031.281 1176.7263 L1020.5302 1169.4175 L1022.4645 1174.9182 L1018.5212 1179.2136 Z" clip-path="url(#clipPath2)" stroke="none"/>
      <rect x="942.2593" width="66.0039" height="18.1328" y="1127.9142" clip-path="url(#clipPath2)" stroke="none"/>
      <text fill="black" x="944.2593" xml:space="preserve" y="1141.5157" clip-path="url(#clipPath2)" stroke="none">locked key</text>
      <path fill="none" d="M1078.7019 1159.5331 L1076.0355 1155.2478 L1061.1241 1136.5015 L1044.5555 1120.3102 L1026.3297 1106.6741 L1006.4466 1095.5933 L1001.3901 1093.5919" clip-path="url(#clipPath2)" stroke="black"/>
      <path fill="black" d="M993.9515 1090.6477 L1003.2692 1099.7131 L1002.3199 1093.96 L1006.9495 1090.4149 Z" clip-path="url(#clipPath2)" stroke="none"/>
      <text fill="black" x="1048.3706" xml:space="preserve" y="1109.819" clip-path="url(#clipPath2)" stroke="none">whether</text>
      <text fill="black" x="1047.3247" xml:space="preserve" y="1123.9518" clip-path="url(#clipPath2)" stroke="none">resolved</text>
      <path fill="none" d="M1071.324 1192.9894 L1061.6874 1204.8425 L1057.6621 1211.9159 L1054.7869 1218.9891 L1053.0618 1226.0624 L1052.4867 1233.1357 L1053.0618 1240.209 L1054.7869 1247.2822 L1057.6621 1254.3556 L1061.6874 1261.4288 L1066.3672 1267.1852" clip-path="url(#clipPath2)" stroke="black"/>
      <path fill="black" d="M1071.4138 1273.3926 L1067.7235 1260.9274 L1065.7363 1266.4093 L1059.9642 1267.2356 Z" clip-path="url(#clipPath2)" stroke="none"/>
      <rect x="1014.9584" width="75.0566" height="32.2656" y="1217.0029" clip-path="url(#clipPath2)" stroke="none"/>
      <text fill="black" x="1039.4408" xml:space="preserve" y="1230.6045" clip-path="url(#clipPath2)" stroke="none">grpc</text>
      <text fill="black" x="1016.9584" xml:space="preserve" y="1244.7373" clip-path="url(#clipPath2)" stroke="none">ResolveLock</text>
      <path fill="none" d="M1104.5818 1273.1162 L1112.6093 1261.4288 L1118.4392 1247.2822 L1120.3824 1233.1357 L1118.4392 1218.9891 L1112.6093 1204.8425 L1109.187 1199.86" clip-path="url(#clipPath2)" stroke="black"/>
      <path fill="black" d="M1104.6577 1193.2656 L1107.3302 1205.9879 L1109.7532 1200.6843 L1115.5731 1200.3263 Z" clip-path="url(#clipPath2)" stroke="none"/>
      <rect x="1101.8239" width="37.1172" height="18.1328" y="1224.0693" clip-path="url(#clipPath2)" stroke="none"/>
      <text fill="black" x="1103.8239" xml:space="preserve" y="1237.6709" clip-path="url(#clipPath2)" stroke="none">result</text>
      <path fill="none" d="M1009.2631 1076.5233 L1235.2295 1072.9088" clip-path="url(#clipPath2)" stroke="black"/>
      <path fill="black" d="M1243.2285 1072.7809 L1231.1501 1067.9734 L1234.2296 1072.9248 L1231.3101 1077.9722 Z" clip-path="url(#clipPath2)" stroke="none"/>
      <rect x="1120.1912" width="34.4395" height="18.1328" y="1065.4071" clip-path="url(#clipPath2)" stroke="none"/>
      <text fill="black" x="1122.1912" xml:space="preserve" y="1079.0087" clip-path="url(#clipPath2)" stroke="none">value</text>
      <path fill="none" d="M614.489 1057.7317 L857.951 1072.7986" clip-path="url(#clipPath2)" stroke="black"/>
      <path fill="black" d="M865.9357 1073.2927 L854.2675 1067.561 L856.9529 1072.7368 L853.6498 1077.542 Z" clip-path="url(#clipPath2)" stroke="none"/>
      <rect x="718.9351" width="23.9688" height="18.1328" y="1055.8707" clip-path="url(#clipPath2)" stroke="none"/>
      <text fill="black" x="720.9351" xml:space="preserve" y="1069.4723" clip-path="url(#clipPath2)" stroke="none">key</text>
      <path fill="none" d="M1102.1008 1306.5464 L1103.0649 1308.0889 L1106.5087 1317.2723 L1107.6566 1326.4558 L1107.3197 1329.1506 L1107.2845 1329.2443" clip-path="url(#clipPath2)" stroke="black"/>
      <path fill="black" d="M1105.9679 1337.1351 L1112.8748 1326.1217 L1107.4492 1328.2578 L1103.0111 1324.4758 Z" clip-path="url(#clipPath2)" stroke="none"/>
      <path fill="none" d="M1072.5953 1337.0383 L1072.0707 1335.6393 L1070.9227 1326.4558 L1072.0707 1317.2723 L1073.3344 1313.9026 L1073.3873 1313.8177" clip-path="url(#clipPath2)" stroke="black"/>
      <path fill="black" d="M1076.5172 1306.4554 L1067.2209 1315.5427 L1072.9961 1314.738 L1076.4238 1319.4551 Z" clip-path="url(#clipPath2)" stroke="none"/>
    </g>
  </g>
</svg>
